{"title":"Total Recall 2012 NEW TS x264 AAC-UNiQUE","uid":7515496,"size":1530227252,"categoryP":"video","categoryS":"movies","magnet":"?xt=urn:btih:26020c5f410743f33c4cdd02a3b103b8a7b88f52&amp;dn=Total+Recall+2012+NEW+TS+x264+AAC-UNiQUE&amp;tr=udp%3A%2F%2Ftracker.openbittorrent.com%3A80&amp;tr=udp%3A%2F%2Fopen.demonii.com%3A1337&amp;tr=udp%3A%2F%2Ftracker.coppersurfer.tk%3A6969&amp;tr=udp%3A%2F%2Fexodus.desync.com%3A6969","seeders":1,"leechers":0,"uploader":"HeroMaster","files":-1,"time":1344458267,"description":"ooooo ooo ooooo ooo o8o .oooooo. ooooo ooo oooooooooooo\n`888' `8' `888b. `8' `&quot;' d8P' `Y8b `888' `8' `888' `8\n888 8 8 `88b. 8 oooo 888 888 888 8 888\n888 8 8 `88b. 8 `888 888 888 888 8 888oooo8\n888 8 8 `88b.8 888 888 888 888 8 888 &quot;\n`88. .8' 8 `888 888 `88b d88b `88. .8' 888 o\n`YbodP' o8o `8 o888o `Y8bood8P'Ybd' `YbodP' o888ooooood8\n\n\n.........why be the same as everyone else when YOU can be UNiQUE.........\n\n\nGeneral\nComplete name : Total Recall 2012 NEW TS x264 AAC-UNiQUE.mp4\nFormat : MPEG-4\nFormat profile : Base Media\nCodec ID : isom\nFile size : 1.39 GiB\nDuration : 1h 49mn\nOverall bit rate mode : Variable\nOverall bit rate : 1 822 Kbps\nEncoded date : UTC 2012-08-08 17:44:03\n\nVideo\nID : 1\nFormat : AVC\nFormat/Info : Advanced Video Codec\nFormat profile : &lt;a class=&quot;__cf_email__&quot; href=&quot;/cdn-cgi/l/email-protection&quot; data-cfemail=&quot;82caebe5eac2ceb6acb3&quot;&gt;[email&amp;#160;protected]&lt;/a&gt;&lt;script cf-hash='f9e31' type=&quot;text/javascript&quot;&gt;\n/* &lt;![CDATA[ */!function(){try{var t=&quot;currentScript&quot;in document?document.currentScript:function(){for(var t=document.getElementsByTagName(&quot;script&quot;),e=t.length;e--;)if(t[e].getAttribute(&quot;cf-hash&quot;))return t[e]}();if(t&amp;&amp;t.previousSibling){var e,r,n,i,c=t.previousSibling,a=c.getAttribute(&quot;data-cfemail&quot;);if(a){for(e=&quot;&quot;,r=parseInt(a.substr(0,2),16),n=2;a.length-n;n+=2)i=parseInt(a.substr(n,2),16)^r,e+=String.fromCharCode(i);e=document.createTextNode(e),c.parentNode.replaceChild(e,c)}}}catch(u){}}();/* ]]&gt; */&lt;/script&gt;\nFormat settings, CABAC : Yes\nFormat settings, ReFrames : 3 frames\nCodec ID : avc1\nCodec ID/Info : Advanced Video Coding\nDuration : 1h 49mn\nBit rate mode : Variable\nBit rate : 1 701 Kbps\nMaximum bit rate : 40.0 Mbps\nWidth : 720 pixels\nHeight : 338 pixels\nDisplay aspect ratio : 2.130\nFrame rate mode : Constant\nFrame rate : 25.000 fps\nColor space : YUV\nChroma subsampling : 4:2:0\nBit depth : 8 bits\nScan type : Progressive\nBits/(Pixel*Frame) : 0.280\nStream size : 1.30 GiB (93%)\nWriting library : x264 core 125 r2208 d9d2288\n\nAudio\nID : 2\nFormat : AAC\nFormat/Info : Advanced Audio Codec\nFormat profile : LC\nCodec ID : 40\nDuration : 1h 49mn\nBit rate mode : Variable\nBit rate : 117 Kbps\nMaximum bit rate : 143 Kbps\nChannel(s) : 2 channels\nChannel positions : Front: L R\nSampling rate : 44.1 KHz\nCompression mode : Lossy\nStream size : 91.4 MiB (6%)\nLanguage : English\nEncoded date : UTC 2012-08-08 17:45:41\n\nSources : Video - SainT VOBS - Thanks!\n: Audio - The Tooth Fairy - Thanks!\n\nStoryline\nA factory worker, Douglas Quaid, begins to suspect that he is a spy after visiting Rekall - a company that provides its clients with implanted fake memories of a \nlife they would like to have led - goes wrong and he finds himself on the run.\n\niMDB: http://www.imdb.com/title/tt1386703/\n\nNotes:\nWe got some nice vobs for this one, but they had their weaknesses, top left corner perspective was off, tried pulling it out and correcting it but to no avail lol, the ar changes throughout but only slightly so you will see black bars and barely notice it, its no big deal i didnt want to overcrop it  anyways onto the filtering .... denoised, yuv, hue, sat, chroma, levels, contrast, resize and sharpen. \n\nAudio is nice line synced, cleaned and muxed.\n\nEnjoy another UNiQUE release.......\n\n\nPoster:\n\n &lt;a href=&quot;\nhttp://i.imgur.com/UINgc.jpg&quot; rel=&quot;nofollow&quot; target=&quot;_NEW&quot;&gt;\nhttp://i.imgur.com/UINgc.jpg&lt;/a&gt;\n\n\nScreenshots:\n\n &lt;a href=&quot;\nhttp://i.imgur.com/Fs0aj.jpg&quot; rel=&quot;nofollow&quot; target=&quot;_NEW&quot;&gt;\nhttp://i.imgur.com/Fs0aj.jpg&lt;/a&gt;\n\n\nENJOY!","torrent":{"xt":"urn:btih:26020c5f410743f33c4cdd02a3b103b8a7b88f52","amp;dn":"Total+Recall+2012+NEW+TS+x264+AAC-UNiQUE","amp;tr":["udp%3A%2F%2Ftracker.openbittorrent.com%3A80","udp%3A%2F%2Fopen.demonii.com%3A1337","udp%3A%2F%2Ftracker.coppersurfer.tk%3A6969","udp%3A%2F%2Fexodus.desync.com%3A6969"],"infoHash":"26020c5f410743f33c4cdd02a3b103b8a7b88f52","infoHashBuffer":{"type":"Buffer","data":[38,2,12,95,65,7,67,243,60,76,221,2,163,177,3,184,167,184,143,82]},"announce":[],"urlList":[]}}